<svg viewBox="0 0 100 100" xmlns="http://www.w3.org/2000/svg">
  <!-- 基板背景 -->
  <rect x="5" y="5" width="90" height="90" rx="5" ry="5" fill="#1a6e35" />
  
  <!-- VIAのグリッドパターン -->
  <g fill="#e6c700" stroke="#a88e00" stroke-width="1">
    <!-- 1行目 -->
    <circle cx="20" cy="20" r="6" />
    <circle cx="50" cy="20" r="6" />
    <circle cx="80" cy="20" r="6" />
    
    <!-- 2行目 -->
    <circle cx="20" cy="50" r="6" />
    <circle cx="50" cy="50" r="6" />
    <circle cx="80" cy="50" r="6" />
    
    <!-- 3行目 -->
    <circle cx="20" cy="80" r="6" />
    <circle cx="50" cy="80" r="6" />
    <circle cx="80" cy="80" r="6" />
  </g>
  
  <!-- VIA内部の穴 -->
  <g fill="#0a3517">
    <circle cx="20" cy="20" r="2" />
    <circle cx="50" cy="20" r="2" />
    <circle cx="80" cy="20" r="2" />
    
    <circle cx="20" cy="50" r="2" />
    <circle cx="50" cy="50" r="2" />
    <circle cx="80" cy="50" r="2" />
    
    <circle cx="20" cy="80" r="2" />
    <circle cx="50" cy="80" r="2" />
    <circle cx="80" cy="80" r="2" />
  </g>
  
  <!-- パターンをつなぐ線（オプション） -->
  <g stroke="#a88e00" stroke-width="1" opacity="0.6">
    <line x1="20" y1="20" x2="50" y2="20" />
    <line x1="50" y1="20" x2="80" y2="20" />
    
    <line x1="20" y1="50" x2="50" y2="50" />
    <line x1="50" y1="50" x2="80" y2="50" />
    
    <line x1="20" y1="80" x2="50" y2="80" />
    <line x1="50" y1="80" x2="80" y2="80" />
    
    <line x1="20" y1="20" x2="20" y2="50" />
    <line x1="20" y1="50" x2="20" y2="80" />
    
    <line x1="50" y1="20" x2="50" y2="50" />
    <line x1="50" y1="50" x2="50" y2="80" />
    
    <line x1="80" y1="20" x2="80" y2="50" />
    <line x1="80" y1="50" x2="80" y2="80" />
  </g>
</svg>